<?xml version="1.0" encoding="UTF-8"?>
<svg xmlns="http://www.w3.org/2000/svg" xmlns:xlink="http://www.w3.org/1999/xlink" width="3000" height="3001" viewBox="1000 150 1000 2600">
<path fill-rule="evenodd" fill="rgb(0%, 0%, 0%)" fill-opacity="1" d="M 1518.351562 630 C 1169.621094 624.378906 866.722656 684.859375 715.429688 774.871094 C 644.992188 816.761719 606.675781 866.140625 605.855469 917.109375 C 605.03125 968.128906 641.929688 1018.320312 711.285156 1061.851562 C 860.09375 1155.230469 1161.699219 1223.050781 1510.371094 1228.671875 C 1771.660156 1232.871094 2007.640625 1201.480469 2173.011719 1148.21875 C 2287 1111.511719 2367.910156 1063.601562 2403.101562 1010.769531 C 2416.878906 990.089844 2424.089844 968.519531 2424.449219 946.390625 C 2425.269531 895.421875 2388.261719 844.808594 2318.75 800.660156 C 2169.460938 705.828125 1867.050781 635.609375 1518.351562 630 Z M 1517.808594 663.328125 C 1810.660156 668.050781 2070.339844 718.460938 2230.660156 791.359375 C 2282.519531 814.941406 2323.769531 840.738281 2351.828125 868.25 C 2377.191406 893.121094 2391.539062 918.980469 2391.109375 945.859375 C 2390.851562 961.851562 2385.308594 977.328125 2375.351562 992.28125 C 2343.019531 1040.808594 2267.5 1082.761719 2162.789062 1116.480469 C 2000.109375 1168.878906 1767.941406 1199.46875 1510.910156 1195.328125 C 1218.03125 1190.609375 958.875 1141.929688 798.988281 1070.398438 C 747.308594 1047.28125 706.214844 1021.898438 678.265625 994.699219 C 653.023438 970.140625 638.761719 944.488281 639.195312 917.640625 C 639.628906 890.761719 654.671875 865.351562 680.648438 841.300781 C 709.367188 814.710938 751.132812 790.25 803.394531 768.359375 C 965.015625 700.648438 1224.988281 658.621094 1517.808594 663.328125 "/>
<path fill-rule="evenodd" fill="rgb(0%, 0%, 0%)" fill-opacity="1" d="M 2395.898438 957.820312 C 2397.769531 965.078125 2404.199219 990 2404.859375 992.011719 C 2406.769531 997.878906 2408.460938 1006.898438 2409.941406 1016.21875 C 2412.890625 1034.820312 2414.921875 1054.53125 2415.429688 1057.289062 C 2422.75 1096.191406 2421.808594 1125.109375 2411.300781 1150.359375 C 2400.46875 1176.378906 2379.921875 1198.351562 2349.910156 1223.449219 C 2278.128906 1283.5 2185.21875 1335.058594 2087.390625 1375.289062 C 1989.089844 1415.71875 1885.851562 1444.730469 1793.859375 1459.320312 C 1788.75 1460.089844 1785.21875 1464.871094 1785.988281 1469.980469 C 1786.761719 1475.089844 1791.539062 1478.621094 1796.648438 1477.851562 C 1890.328125 1464.480469 1995.679688 1436.648438 2096.179688 1397.140625 C 2197.21875 1357.410156 2293.308594 1305.820312 2367.941406 1245.351562 C 2402.769531 1217.121094 2426.011719 1191.710938 2438.878906 1162.101562 C 2451.839844 1132.300781 2454.488281 1098.03125 2446.53125 1051.691406 C 2446 1048.628906 2443.949219 1024.441406 2440.75 1004.398438 C 2439.371094 995.71875 2437.730469 987.761719 2435.980469 982.121094 C 2435.171875 979.511719 2429.921875 951.648438 2425.710938 942.140625 C 2418.609375 926.109375 2404.789062 928.359375 2398.878906 932.03125 C 2391.101562 936.941406 2388.769531 947.238281 2393.679688 955.019531 C 2394.328125 956.050781 2395.070312 956.988281 2395.898438 957.820312 Z M 2406.640625 962.75 C 2410.089844 963.171875 2413.441406 962.300781 2416.679688 960.21875 C 2413.570312 962.191406 2410.058594 962.988281 2406.640625 962.75 "/>
<path fill-rule="evenodd" fill="rgb(0%, 0%, 0%)" fill-opacity="1" d="M 632.480469 959.480469 C 634.492188 958.261719 636.269531 956.578125 637.65625 954.488281 C 641.285156 949.011719 641.253906 942.160156 638.136719 936.839844 C 637.214844 934.070312 635.539062 929.390625 634.394531 927.921875 C 631.160156 923.769531 627.054688 921.738281 622.578125 921.199219 C 617.277344 920.570312 612.167969 922.089844 608 926.601562 C 605.984375 928.789062 603.328125 936.148438 603.328125 936.148438 C 603.328125 936.148438 603.445312 935.660156 603.484375 935.5 C 589.808594 986.671875 600.601562 1059.648438 604.707031 1113.039062 C 605.414062 1122.210938 613.433594 1129.089844 622.609375 1128.378906 C 631.785156 1127.679688 638.660156 1119.660156 637.953125 1110.480469 C 634.5 1065.589844 625.109375 1005.921875 632.480469 959.480469 "/>
<path fill-rule="evenodd" fill="rgb(0%, 0%, 0%)" fill-opacity="1" d="M 620.054688 1111.210938 C 628.332031 1111.121094 635.449219 1104.871094 636.414062 1096.429688 C 637.457031 1087.289062 630.882812 1079.019531 621.738281 1077.980469 C 617.277344 1077.621094 611.296875 1078.308594 605.34375 1081.601562 C 594.675781 1087.488281 582.316406 1100.890625 583.710938 1121.089844 C 584.691406 1135.351562 592.5625 1154.769531 618.945312 1176.238281 C 644.585938 1197.109375 673.175781 1213.300781 703.394531 1226.808594 C 747.03125 1246.328125 793.773438 1260.390625 838.769531 1276.121094 C 841.558594 1277.199219 844.695312 1275.820312 845.777344 1273.03125 C 846.859375 1270.25 845.476562 1267.109375 842.691406 1266.03125 C 799.355469 1247.480469 754.167969 1230.511719 712.429688 1208.320312 C 685.078125 1193.78125 659.355469 1176.949219 636.742188 1155.828125 C 626.929688 1146.671875 620.804688 1138.449219 617.3125 1131.210938 C 615.496094 1127.441406 614.707031 1124.011719 614.527344 1120.96875 C 614.242188 1116.160156 618.625 1112.320312 620.054688 1111.210938 "/>
<path fill-rule="evenodd" fill="rgb(0%, 0%, 0%)" fill-opacity="1" d="M 577.3125 1132.269531 C 570.902344 1161.421875 569.414062 1193.160156 572.34375 1227.398438 C 572.527344 1231.308594 572.804688 1234.800781 573.144531 1237.761719 C 560.644531 1257.601562 545.8125 1274.789062 532.316406 1293.359375 C 516.210938 1315.519531 501.917969 1339.488281 494.179688 1370.679688 C 479.363281 1430.410156 465.796875 1786.949219 468.386719 2022.507812 C 469.515625 2125.402344 474.160156 2205.613281 482.363281 2229.683594 C 492.082031 2258.199219 520.824219 2294.820312 563.296875 2333.277344 C 657.644531 2418.699219 820.199219 2515.988281 973.21875 2560.175781 C 1272.128906 2646.492188 1848.339844 2700.304688 2270.820312 2470.363281 C 2315.460938 2446.066406 2356.628906 2421.484375 2392.660156 2391.800781 C 2454.71875 2340.648438 2493.25 2266.402344 2499.320312 2186.203125 C 2515.660156 1971.421875 2530.351562 1757.390625 2530.351562 1541.328125 C 2530.351562 1478.941406 2538.898438 1405.148438 2516.269531 1345.46875 C 2505.148438 1316.160156 2487.820312 1290.558594 2468.488281 1266.140625 C 2466.910156 1264.140625 2462.351562 1259.261719 2460.140625 1256.910156 C 2459.410156 1254.949219 2458.289062 1253.101562 2456.789062 1251.460938 C 2450.558594 1244.699219 2440 1244.261719 2433.230469 1250.5 C 2429.261719 1254.160156 2426.839844 1259.171875 2427.890625 1265.949219 C 2428.230469 1268.160156 2429.28125 1271.53125 2431.871094 1275.121094 C 2434.289062 1278.46875 2440 1283.859375 2442.339844 1286.828125 C 2459.539062 1308.558594 2475.199219 1331.210938 2485.089844 1357.300781 C 2506.351562 1413.339844 2497.011719 1482.738281 2497.011719 1541.328125 C 2497.011719 1756.550781 2482.351562 1969.730469 2466.070312 2183.679688 C 2466.070312 2183.683594 2466.070312 2183.683594 2466.070312 2183.6875 C 2460.679688 2254.828125 2426.511719 2320.691406 2371.449219 2366.066406 C 2337 2394.453125 2297.570312 2417.84375 2254.878906 2441.074219 C 1840.628906 2666.539062 1275.558594 2612.777344 982.472656 2528.140625 C 834.359375 2485.371094 676.996094 2391.242188 585.675781 2308.558594 C 548.582031 2274.972656 522.410156 2243.832031 513.925781 2218.925781 C 506.136719 2196.074219 502.800781 2119.84375 501.726562 2022.140625 C 499.171875 1789.628906 511.914062 1437.671875 526.542969 1378.710938 C 533.132812 1352.140625 545.570312 1331.839844 559.289062 1312.960938 C 569.03125 1299.550781 579.398438 1286.808594 589.171875 1273.359375 C 597.71875 1285.398438 608.71875 1296.871094 621.601562 1307.648438 C 652.019531 1333.109375 693.140625 1355 734.761719 1372.640625 C 743.230469 1376.230469 753.023438 1372.269531 756.613281 1363.789062 C 760.203125 1355.320312 756.242188 1345.53125 747.769531 1341.941406 C 709.285156 1325.628906 671.128906 1305.621094 643.003906 1282.078125 C 626.519531 1268.289062 613.519531 1253.421875 606.847656 1237.179688 L 606.578125 1234.859375 L 606.113281 1230.519531 C 605.800781 1222.730469 605.359375 1208.089844 605.820312 1195.351562 C 606.582031 1174.191406 610.164062 1145.429688 612.371094 1129.289062 C 613.855469 1123.828125 615.5625 1118.480469 617.488281 1113.238281 C 620.617188 1104.738281 616.386719 1095.300781 607.960938 1091.980469 C 602.511719 1089.828125 597.09375 1090.179688 591.789062 1093.519531 C 589.539062 1094.941406 586.875 1097.320312 584.703125 1101.300781 C 583.183594 1104.089844 581.492188 1108.800781 580.128906 1115.078125 C 579.113281 1119.761719 578.164062 1125.628906 577.3125 1132.269531 Z M 2456.410156 1274.449219 L 2455.828125 1275.019531 C 2456.03125 1274.839844 2456.21875 1274.648438 2456.410156 1274.449219 Z M 2457.019531 1273.808594 L 2456.5 1274.359375 L 2456.789062 1274.058594 Z M 2458.890625 1271.238281 C 2458.359375 1272.140625 2457.738281 1273 2457.019531 1273.800781 C 2457.730469 1273 2458.359375 1272.148438 2458.890625 1271.238281 Z M 2459.128906 1270.800781 L 2459.109375 1270.839844 L 2459.128906 1270.808594 L 2459.128906 1270.800781 "/>
<path fill-rule="evenodd" fill="rgb(0%, 0%, 0%)" fill-opacity="1" d="M 734.761719 1372.640625 C 752.425781 1379.359375 787.671875 1387.609375 828.71875 1395.609375 C 913.109375 1412.070312 1022.011719 1428.300781 1045.839844 1431.671875 C 1048.539062 1432.160156 1051.140625 1430.359375 1051.621094 1427.648438 C 1052.109375 1424.941406 1050.308594 1422.351562 1047.601562 1421.859375 C 1026.960938 1417.351562 941.460938 1398.03125 864.886719 1378.039062 C 814.457031 1364.871094 768.113281 1351.46875 747.769531 1341.941406 C 739.296875 1338.351562 729.503906 1342.308594 725.914062 1350.78125 C 722.324219 1359.261719 726.289062 1369.050781 734.761719 1372.640625 "/>
<path fill-rule="evenodd" fill="rgb(0%, 0%, 0%)" fill-opacity="1" d="M 2419.191406 1159.21875 C 2424.46875 1169.609375 2429.558594 1190.089844 2431.25 1210.640625 C 2432.789062 1229.289062 2432.640625 1248.21875 2424.808594 1258.199219 C 2393.398438 1298.25 2355.820312 1332.828125 2314.628906 1362.578125 C 2272.820312 1392.761719 2227.449219 1417.980469 2181.140625 1438.890625 C 2178.390625 1440.050781 2177.089844 1443.21875 2178.25 1445.980469 C 2179.410156 1448.730469 2182.578125 1450.03125 2185.339844 1448.871094 C 2233.609375 1430.058594 2281.140625 1406.75 2325.328125 1378.25 C 2369.851562 1349.53125 2410.808594 1315.488281 2445.71875 1275.5 C 2455.71875 1264.039062 2460.691406 1243.828125 2461.449219 1221.769531 C 2462.449219 1192.539062 2456.121094 1160.25 2449.289062 1144.878906 C 2445.328125 1136.578125 2435.371094 1133.039062 2427.070312 1137 C 2418.761719 1140.960938 2415.230469 1150.921875 2419.191406 1159.21875 "/>
<path fill-rule="evenodd" fill="rgb(0%, 0%, 0%)" fill-opacity="1" d="M 1542.511719 1340.359375 C 1542.199219 1337.148438 1541.761719 1331.851562 1541.570312 1326.859375 C 1540.679688 1303.558594 1541.109375 1266.449219 1544.449219 1249.761719 C 1546.25 1240.738281 1540.390625 1231.949219 1531.371094 1230.140625 C 1522.351562 1228.339844 1513.558594 1234.199219 1511.75 1243.21875 C 1508.078125 1261.601562 1507.269531 1302.460938 1508.25 1328.128906 C 1508.738281 1341.25 1510.121094 1350.988281 1511.199219 1353.898438 C 1514.300781 1362.328125 1520.5 1364.441406 1523.820312 1365.148438 C 1527.53125 1365.949219 1531.300781 1365.609375 1535.078125 1363.679688 C 1537.328125 1362.53125 1540.691406 1360.359375 1543.019531 1355.269531 C 1545.289062 1350.308594 1544.921875 1344.808594 1542.511719 1340.359375 Z M 1514.28125 1338.671875 L 1513.941406 1339.160156 C 1513.789062 1339.398438 1513.640625 1339.640625 1513.488281 1339.878906 L 1513.089844 1340.609375 C 1513.460938 1339.890625 1513.859375 1339.25 1514.28125 1338.671875 "/>
<path fill-rule="evenodd" fill="rgb(0%, 0%, 0%)" fill-opacity="1" d="M 1512.390625 1244.511719 C 1511.71875 1244.539062 1510.449219 1244.550781 1509.609375 1244.371094 C 1506.710938 1243.738281 1503.558594 1242.441406 1500.261719 1240.578125 C 1488.878906 1234.191406 1476.21875 1222.398438 1464.511719 1206.78125 C 1448.988281 1186.101562 1435.171875 1158.941406 1428.191406 1128.089844 C 1418.738281 1086.320312 1423.75 1018.210938 1434.410156 945.480469 C 1449.398438 843.238281 1475.871094 732.140625 1492.03125 670.019531 C 1493.121094 666.039062 1490.78125 661.921875 1486.800781 660.820312 C 1482.820312 659.730469 1478.699219 662.070312 1477.609375 666.050781 C 1459.589844 728.160156 1429.820312 839.300781 1411.851562 941.851562 C 1398.488281 1018.078125 1391.960938 1089.660156 1400.679688 1133.910156 C 1411.191406 1187.269531 1439.789062 1231.5 1466.628906 1255.539062 C 1482.558594 1269.808594 1498.648438 1276.949219 1510.960938 1277.488281 C 1522.921875 1278.011719 1532.679688 1273.320312 1539.621094 1263.75 C 1544.921875 1256.230469 1543.121094 1245.820312 1535.589844 1240.519531 C 1528.078125 1235.230469 1517.691406 1237.019531 1512.390625 1244.511719 Z M 1512.398438 1244.511719 C 1512.660156 1244.511719 1512.828125 1244.488281 1512.828125 1244.488281 C 1512.828125 1244.488281 1512.53125 1244.421875 1512.398438 1244.511719 "/>
<path fill-rule="evenodd" fill="rgb(0%, 0%, 0%)" fill-opacity="1" d="M 1516.78125 1234.25 C 1515.859375 1235.101562 1515.03125 1236.058594 1514.289062 1237.140625 C 1513.480469 1238.378906 1513.011719 1239.148438 1512.808594 1239.519531 C 1511.511719 1241.929688 1511.128906 1243.621094 1510.988281 1244.371094 C 1509.851562 1250.238281 1511.609375 1254.109375 1513 1256.359375 C 1515.21875 1259.921875 1518.191406 1262.390625 1522.050781 1263.601562 C 1524.769531 1264.460938 1530.128906 1265.980469 1536.429688 1261.710938 C 1536.820312 1261.449219 1538.800781 1260.210938 1541.03125 1257.289062 C 1543.589844 1253.949219 1552.199219 1241.839844 1555.351562 1236.71875 C 1558.648438 1231.359375 1561.78125 1225.898438 1564.800781 1220.378906 C 1569.191406 1212.371094 1573.359375 1204.238281 1577.578125 1196.140625 C 1588.339844 1175.511719 1596.828125 1155.101562 1602.371094 1133.960938 C 1607.96875 1112.558594 1610.671875 1090.441406 1609.640625 1066.671875 C 1607.460938 1016.5 1596.398438 958.640625 1580.230469 900.078125 C 1557.039062 816.089844 1523.511719 730.679688 1491.589844 664.871094 C 1489.851562 661.128906 1485.390625 659.511719 1481.660156 661.261719 C 1477.921875 663 1476.300781 667.460938 1478.039062 671.191406 C 1502.871094 726.539062 1528.421875 795.570312 1548.058594 865.769531 C 1567.730469 936.121094 1581.441406 1007.609375 1582.238281 1067.449219 C 1582.519531 1088.269531 1579.589844 1107.539062 1574.121094 1126.109375 C 1568.578125 1144.960938 1560.339844 1163.050781 1550.121094 1181.300781 L 1527.871094 1219.238281 C 1525.78125 1222.421875 1519.839844 1230.25 1516.78125 1234.25 "/>
<path fill-rule="evenodd" fill="rgb(0%, 0%, 0%)" fill-opacity="1" d="M 731.738281 1370.96875 C 863.949219 1461.429688 1077.238281 1520.578125 1306.351562 1545.640625 C 1509.191406 1567.828125 1724.351562 1563.550781 1905.601562 1531.550781 C 1945.269531 1524.550781 1988.460938 1514.050781 2027.179688 1503.570312 C 2093.371094 1485.671875 2146.480469 1467.851562 2146.480469 1467.851562 C 2149.089844 1467 2150.519531 1464.179688 2149.671875 1461.570312 C 2148.808594 1458.949219 2146 1457.519531 2143.378906 1458.378906 C 2143.378906 1458.378906 2090.269531 1475.238281 2024.148438 1491.988281 C 1985.628906 1501.738281 1942.691406 1511.460938 1903.28125 1517.761719 C 1723.121094 1546.570312 1509.800781 1547.378906 1309.109375 1522.140625 C 1085.929688 1494.070312 878.386719 1433.96875 750.789062 1343.609375 C 743.238281 1338.351562 732.839844 1340.210938 727.582031 1347.769531 C 722.324219 1355.320312 724.1875 1365.71875 731.738281 1370.96875 "/>
<path fill-rule="evenodd" fill="rgb(0%, 0%, 0%)" fill-opacity="1" d="M 870.492188 1123.269531 C 871.195312 1122.769531 872.097656 1122.148438 872.925781 1121.609375 C 885.160156 1113.691406 913.929688 1097.03125 930.132812 1089.199219 C 945.644531 1081.710938 961.476562 1075.058594 977.613281 1069.199219 C 993.835938 1063.320312 1010.320312 1058.199219 1027.058594 1053.789062 C 1076.371094 1040.820312 1125.390625 1032.648438 1174.570312 1027.21875 C 1249.371094 1018.949219 1324.398438 1016.898438 1401.089844 1013.800781 C 1403.839844 1013.738281 1406.03125 1011.46875 1405.980469 1008.71875 C 1405.921875 1005.96875 1403.640625 1003.78125 1400.890625 1003.828125 C 1323.738281 1003.738281 1248.300781 1002.660156 1172.828125 1007.839844 C 1122.371094 1011.300781 1071.949219 1017.578125 1021.019531 1028.730469 C 1003.320312 1032.609375 985.84375 1037.25 968.617188 1042.699219 C 951.308594 1048.171875 934.289062 1054.511719 917.570312 1061.738281 C 900.0625 1069.308594 868.855469 1085.671875 855.546875 1093.53125 C 851.488281 1095.921875 848.742188 1097.898438 847.574219 1098.898438 C 840.179688 1105.191406 841.429688 1112.429688 841.816406 1114.859375 C 842.621094 1119.871094 845.417969 1123.929688 850.617188 1126.75 C 857.421875 1130.261719 865.53125 1128.628906 870.492188 1123.269531 Z M 874.164062 1106.941406 C 874.539062 1108.128906 874.78125 1109.359375 874.878906 1110.609375 C 874.789062 1109.289062 874.535156 1108.070312 874.164062 1106.941406 Z M 871.9375 1102.398438 C 870.535156 1100.300781 868.621094 1098.449219 865.914062 1097.121094 C 868.40625 1098.410156 870.441406 1100.238281 871.9375 1102.398438 "/>
<path fill-rule="evenodd" fill="rgb(0%, 0%, 0%)" fill-opacity="1" d="M 2191.378906 1124.109375 C 2187.980469 1115.300781 2180.191406 1105.800781 2167.550781 1097.070312 C 2145.949219 1082.160156 2108.859375 1067.289062 2064.851562 1054.039062 C 1957.558594 1021.738281 1808.679688 997.371094 1756.398438 995.371094 C 1727.898438 994.289062 1696.460938 993.421875 1666.371094 993.441406 C 1645.128906 993.449219 1624.589844 993.898438 1606.199219 995.019531 C 1603.460938 995.140625 1601.320312 997.460938 1601.429688 1000.210938 C 1601.539062 1002.960938 1603.871094 1005.101562 1606.621094 1004.980469 C 1624.828125 1004.589844 1645.148438 1004.949219 1666.128906 1005.761719 C 1696.03125 1006.910156 1727.21875 1009 1755.488281 1011.191406 C 1800.179688 1014.660156 1916.238281 1037.699219 2014.320312 1067.289062 C 2058.941406 1080.75 2099.738281 1095.558594 2128.101562 1110.550781 C 2137.878906 1115.71875 2146.03125 1120.898438 2152.140625 1126.050781 C 2156.03125 1129.320312 2158.949219 1132.308594 2160.039062 1135.488281 C 2163.179688 1144.140625 2172.75 1148.609375 2181.390625 1145.46875 C 2190.039062 1142.328125 2194.519531 1132.761719 2191.378906 1124.109375 "/>
<path fill-rule="evenodd" fill="rgb(0%, 0%, 0%)" fill-opacity="1" d="M 666.835938 1023 C 673.804688 1022.871094 691 1017.039062 712.550781 1006.960938 C 761.476562 984.058594 838.695312 941.261719 861.289062 932.878906 C 924.835938 909.320312 990.207031 892.628906 1056.601562 881.519531 C 1123.351562 870.351562 1191.058594 864.769531 1258.898438 863.488281 C 1261.648438 863.488281 1263.890625 861.261719 1263.890625 858.511719 C 1263.890625 855.761719 1261.648438 853.519531 1258.898438 853.519531 C 1190.371094 852.230469 1121.820312 855.28125 1054.011719 864.011719 C 985.886719 872.769531 918.601562 887.300781 852.898438 908.871094 C 829.738281 916.480469 749.976562 956.671875 699.632812 977.941406 C 683.886719 984.601562 671.859375 989.75 666.851562 989.648438 C 657.648438 989.648438 650.175781 997.121094 650.171875 1006.320312 C 650.164062 1015.519531 657.632812 1022.988281 666.835938 1023 "/>
<path fill-rule="evenodd" fill="rgb(0%, 0%, 0%)" fill-opacity="1" d="M 1600.761719 805.398438 C 1599.5 804.890625 1598.160156 804.53125 1596.75 804.339844 C 1595.410156 804.199219 1594.589844 804.109375 1594.210938 804.089844 C 1592.449219 803.980469 1591.371094 804.039062 1590.929688 804.101562 C 1584.21875 804.960938 1581.148438 808.308594 1579.921875 809.839844 C 1576.78125 813.75 1575.460938 817.859375 1576.011719 822.21875 C 1576.390625 825.25 1577.148438 831.089844 1584.070312 834.921875 C 1584.71875 835.28125 1585.738281 835.929688 1587.300781 836.398438 C 1587.589844 836.488281 1588.859375 836.898438 1590.960938 837.21875 C 1595.921875 837.960938 1613.410156 840.238281 1620.429688 841.570312 L 1698.121094 854.261719 C 1750.859375 862.859375 1807.078125 872.921875 1860.328125 889.820312 C 1895.878906 901.101562 1930.050781 915.328125 1960.929688 934.230469 C 1963.230469 935.738281 1966.320312 935.089844 1967.828125 932.789062 C 1969.328125 930.480469 1968.691406 927.390625 1966.378906 925.890625 C 1935.851562 904.589844 1901.640625 887.871094 1865.839844 874.109375 C 1812.75 853.710938 1756.261719 840.039062 1703.191406 828.089844 L 1627.148438 810.96875 C 1621.25 809.488281 1608.140625 806.890625 1600.761719 805.398438 "/>
<path fill-rule="evenodd" fill="rgb(0%, 0%, 0%)" fill-opacity="1" d="M 2328.609375 1056.011719 C 2328.199219 1055.5 2326.960938 1053.941406 2325.980469 1052.570312 C 2317.671875 1041 2300.121094 1012.609375 2291.039062 1002.511719 C 2275.058594 984.730469 2256.320312 969.859375 2235.789062 957.570312 C 2215.238281 945.269531 2192.890625 936.03125 2169.570312 929.460938 C 2160.578125 927.480469 2151.679688 933.171875 2149.699219 942.148438 C 2147.71875 951.140625 2153.398438 960.039062 2162.390625 962.019531 C 2183.738281 965.460938 2204.5 971.359375 2223.980469 980.160156 C 2243.828125 989.128906 2262.308594 1000.628906 2278.621094 1015.039062 C 2288.460938 1023.730469 2308.371094 1049.140625 2317.640625 1059.328125 C 2320.109375 1062.050781 2322 1063.878906 2323.019531 1064.5 C 2326.25 1066.441406 2328.601562 1065.378906 2329.738281 1064.269531 C 2331.808594 1062.460938 2332.03125 1059.308594 2330.21875 1057.230469 C 2329.761719 1056.699219 2329.210938 1056.289062 2328.609375 1056.011719 Z M 2325.71875 1055.589844 L 2325.378906 1055.648438 C 2325.21875 1055.691406 2325.070312 1055.730469 2324.910156 1055.769531 L 2324.460938 1055.949219 C 2324.839844 1055.761719 2325.261719 1055.628906 2325.71875 1055.589844 "/>
</svg>
