<?xml version="1.0" encoding="UTF-8"?>
<svg xmlns="http://www.w3.org/2000/svg" xmlns:xlink="http://www.w3.org/1999/xlink" width="1100" height="1100" viewBox="500 420 1100 1100">
<path fill-rule="nonzero" fill="rgb(13.729858%, 12.159729%, 12.548828%)" fill-opacity="1" d="M 936.382812 1258.292969 C 953.546875 1258.292969 969.085938 1265.25 980.332031 1276.496094 C 991.582031 1287.746094 998.539062 1303.285156 998.539062 1320.449219 C 998.539062 1337.609375 991.578125 1353.148438 980.332031 1364.398438 C 969.085938 1375.644531 953.546875 1382.601562 936.382812 1382.601562 C 919.222656 1382.601562 903.683594 1375.644531 892.4375 1364.394531 C 881.1875 1353.148438 874.230469 1337.609375 874.230469 1320.449219 C 874.230469 1303.285156 881.1875 1287.746094 892.4375 1276.5 C 903.683594 1265.253906 919.222656 1258.292969 936.382812 1258.292969 Z M 956.714844 1300.113281 C 951.515625 1294.914062 944.324219 1291.695312 936.382812 1291.695312 C 928.445312 1291.695312 921.253906 1294.914062 916.054688 1300.117188 C 910.851562 1305.316406 907.632812 1312.507812 907.632812 1320.449219 C 907.632812 1328.386719 910.851562 1335.578125 916.054688 1340.777344 C 921.253906 1345.980469 928.445312 1349.199219 936.382812 1349.199219 C 944.324219 1349.199219 951.515625 1345.980469 956.714844 1340.78125 C 961.917969 1335.578125 965.136719 1328.386719 965.136719 1320.449219 C 965.136719 1312.507812 961.917969 1305.316406 956.714844 1300.113281 "/>
<path fill-rule="nonzero" fill="rgb(13.729858%, 12.159729%, 12.548828%)" fill-opacity="1" d="M 1285.929688 1258.292969 C 1303.101562 1258.292969 1318.628906 1265.253906 1329.878906 1276.5 C 1341.128906 1287.746094 1348.089844 1303.285156 1348.089844 1320.449219 C 1348.089844 1337.609375 1341.128906 1353.148438 1329.878906 1364.398438 C 1318.628906 1375.644531 1303.101562 1382.601562 1285.929688 1382.601562 C 1268.769531 1382.601562 1253.230469 1375.644531 1241.988281 1364.398438 C 1230.738281 1353.148438 1223.78125 1337.609375 1223.78125 1320.449219 C 1223.78125 1303.289062 1230.738281 1287.746094 1241.988281 1276.5 C 1253.230469 1265.253906 1268.769531 1258.292969 1285.929688 1258.292969 Z M 1306.269531 1300.117188 C 1301.058594 1294.914062 1293.878906 1291.695312 1285.929688 1291.695312 C 1277.988281 1291.695312 1270.800781 1294.914062 1265.601562 1300.117188 C 1260.398438 1305.316406 1257.179688 1312.507812 1257.179688 1320.449219 C 1257.179688 1328.390625 1260.398438 1335.578125 1265.601562 1340.78125 C 1270.800781 1345.980469 1277.988281 1349.199219 1285.929688 1349.199219 C 1293.878906 1349.199219 1301.058594 1345.980469 1306.269531 1340.78125 C 1311.46875 1335.578125 1314.691406 1328.390625 1314.691406 1320.449219 C 1314.691406 1312.507812 1311.46875 1305.316406 1306.269531 1300.117188 "/>
<path fill-rule="nonzero" fill="rgb(13.729858%, 12.159729%, 12.548828%)" fill-opacity="1" d="M 546.488281 690.800781 C 537.261719 690.800781 529.785156 683.320312 529.785156 674.101562 C 529.785156 664.878906 537.261719 657.398438 546.488281 657.398438 L 739.792969 657.398438 C 747.460938 657.398438 753.925781 662.570312 755.882812 669.609375 L 832.992188 880.640625 C 836.125 889.28125 831.65625 898.839844 823.011719 901.96875 C 814.363281 905.101562 804.8125 900.640625 801.679688 891.988281 L 728.164062 690.800781 L 546.488281 690.800781 "/>
<path fill-rule="nonzero" fill="rgb(13.729858%, 12.159729%, 12.548828%)" fill-opacity="1" d="M 908.59375 1102.433594 L 1326.738281 1102.433594 L 1326.738281 1135.835938 L 908.59375 1135.835938 C 897.511719 1135.835938 887.421875 1140.386719 880.097656 1147.710938 C 872.773438 1155.03125 868.226562 1165.121094 868.226562 1176.203125 C 868.226562 1187.289062 872.773438 1197.378906 880.097656 1204.703125 C 887.421875 1212.027344 897.511719 1216.574219 908.59375 1216.574219 L 1370.789062 1216.574219 C 1379.980469 1216.574219 1387.488281 1224.089844 1387.488281 1233.277344 C 1387.488281 1242.460938 1379.980469 1249.976562 1370.789062 1249.976562 L 908.59375 1249.976562 C 888.289062 1249.976562 869.84375 1241.683594 856.480469 1228.320312 C 843.121094 1214.957031 834.824219 1196.511719 834.824219 1176.207031 C 834.824219 1155.902344 843.121094 1137.453125 856.480469 1124.09375 C 869.84375 1110.730469 888.292969 1102.433594 908.59375 1102.433594 "/>
<path fill-rule="nonzero" fill="rgb(13.729858%, 12.159729%, 12.548828%)" fill-opacity="1" d="M 1351.050781 1135.835938 L 945.039062 1135.835938 C 928.566406 1135.835938 913.203125 1130.851562 900.457031 1121.9375 C 887.742188 1113.050781 877.796875 1100.308594 872.117188 1084.769531 L 790.757812 862.101562 C 789.429688 858.46875 788.375 854.808594 787.589844 851.148438 L 822.21875 851.148438 L 903.433594 1073.417969 C 906.707031 1082.382812 912.347656 1089.664062 919.503906 1094.667969 C 926.628906 1099.648438 935.417969 1102.433594 945.039062 1102.433594 L 1351.050781 1102.433594 C 1360.671875 1102.433594 1369.460938 1099.648438 1376.578125 1094.667969 C 1383.738281 1089.664062 1389.378906 1082.382812 1392.660156 1073.417969 L 1474.019531 850.75 C 1476.621094 843.621094 1477.460938 836.511719 1476.570312 829.71875 C 1475.679688 822.910156 1473.058594 816.261719 1468.738281 810.089844 C 1464.460938 803.96875 1459.121094 799.238281 1452.980469 796.050781 C 1446.921875 792.890625 1439.96875 791.238281 1432.410156 791.238281 L 799.941406 791.238281 L 800.078125 791.039062 C 807.570312 780.328125 816.941406 772.039062 827.710938 766.429688 C 838.550781 760.78125 850.703125 757.828125 863.675781 757.828125 L 1432.410156 757.828125 C 1445.390625 757.828125 1457.539062 760.78125 1468.378906 766.429688 C 1479.148438 772.039062 1488.519531 780.328125 1496.011719 791.039062 C 1503.449219 801.691406 1508.011719 813.328125 1509.578125 825.421875 C 1511.171875 837.53125 1509.769531 849.941406 1505.328125 862.101562 L 1423.96875 1084.769531 C 1418.289062 1100.308594 1408.339844 1113.050781 1395.628906 1121.9375 C 1382.890625 1130.851562 1367.519531 1135.835938 1351.050781 1135.835938 "/>
<path fill-rule="evenodd" fill="rgb(0%, 0%, 0%)" fill-opacity="1" d="M 778.5625 757.828125 L 940.761719 757.828125 L 940.761719 791.238281 L 778.5625 791.238281 L 778.5625 757.828125 "/>
</svg>
